<svg width="72" height="73" viewBox="0 0 72 73" fill="none" xmlns="http://www.w3.org/2000/svg">
<path d="M51.7378 54.8721C55.2203 70.1228 52.7348 65.7255 45.1338 59.6397" stroke="#AEB8FE" stroke-width="2" stroke-linecap="round" stroke-linejoin="round"/>
<path d="M17.0693 13.486C20.4 16.2925 31.8021 8.12683 33.5285 8.57604C37.1978 9.53011 40.8817 10.9174 44.6111 11.8875C48.4687 12.8911 53.3396 12.9041 53.2797 13.0292C52.9507 13.7148 38.0758 17.7927 34.0775 18.6247C32.6807 18.9153 19.311 14.3836 16.7402 13.7148" stroke="#AEB8FE" stroke-width="2" stroke-linecap="round" stroke-linejoin="round"/>
<path d="M28.4403 13.2378C9.67353 14.2359 14.4003 15.0378 13.3203 26.9179" stroke="#AEB8FE" stroke-width="2" stroke-linecap="round" stroke-linejoin="round"/>
<path d="M21.7664 16.1001C20.5336 20.6962 20.5336 19.6779 21.7664 20.3466C23.2008 21.1249 32.9158 25.9606 34.8047 25.9606C37.8082 25.9606 44.7504 21.8971 46.2416 20.1999" stroke="#AEB8FE" stroke-width="2" stroke-linecap="round" stroke-linejoin="round"/>
<path d="M45.8152 36.0347C43.889 56.1513 18.1647 49.2785 21.2517 32.9558C20.1083 31.3521 17.9933 29.3477 21.2519 29.3477" stroke="#AEB8FE" stroke-width="2" stroke-linecap="round" stroke-linejoin="round"/>
<path d="M36.4211 39.9956C34.4339 41.5274 31.9357 42.1783 30.2383 39.9956" stroke="#AEB8FE" stroke-width="2" stroke-linecap="round" stroke-linejoin="round"/>
<path d="M31.1387 33.5394C31.235 32.8085 31.2724 32.0318 31.307 31.2939" stroke="#AEB8FE" stroke-width="2" stroke-linecap="round" stroke-linejoin="round"/>
<path d="M36.998 33.5394C37.1784 32.7813 37.25 32.0607 37.25 31.2939" stroke="#AEB8FE" stroke-width="2" stroke-linecap="round" stroke-linejoin="round"/>
<path d="M52.7217 39.9956C49.0789 47.2492 42.5037 52.815 38.9512 59.9248" stroke="#AEB8FE" stroke-width="2" stroke-linecap="round" stroke-linejoin="round"/>
<path d="M55.3907 39.4341C59.1171 40.2851 57.3385 43.3143 54.4072 41.8446" stroke="#AEB8FE" stroke-width="2" stroke-linecap="round" stroke-linejoin="round"/>
<path d="M57.7801 41.9604C54.4364 45.7856 47.379 66.41 39.7939 60.987" stroke="#AEB8FE" stroke-width="2" stroke-linecap="round" stroke-linejoin="round"/>
<path d="M48.5061 54.5538C47.0301 54.6915 46.0053 54.4786 45.1338 53.4688" stroke="#AEB8FE" stroke-width="2" stroke-linecap="round" stroke-linejoin="round"/>
<path d="M27.1475 49.3485C30.3947 50.6829 29.8997 55.8507 31.8446 57.7529C33.6739 59.5425 39.8499 49.1314 40.5506 48.788C41.5905 48.2799 44.1796 50.046 45.1336 50.3574" stroke="#AEB8FE" stroke-width="2" stroke-linecap="round" stroke-linejoin="round"/>
<path d="M27.4283 49.5391C22.9614 50.7281 15.3313 55.1923 14.2197 63.0124" stroke="#AEB8FE" stroke-width="2" stroke-linecap="round" stroke-linejoin="round"/>
<path d="M47.0568 31.2608C50.5577 30.9229 48.058 34.4038 46.29 35.4481" stroke="#AEB8FE" stroke-width="2" stroke-linecap="round" stroke-linejoin="round"/>
</svg>
