<svg width="72" height="73" viewBox="0 0 72 73" fill="none" xmlns="http://www.w3.org/2000/svg">
<path d="M38.8506 43.3921C41.511 42.5629 58.4749 40.2891 59.3549 41.6092C60.2951 43.0192 57.783 46.9322 57.1758 48.1468" stroke="#AEB8FE" stroke-width="2" stroke-linecap="round" stroke-linejoin="round"/>
<path d="M36.0773 46.7598C34.7493 49.4428 24.9125 67.3212 25.3794 68.2548C33.2326 67.3597 48.209 67.9105 49.9451 66.1746C50.9768 65.1428 51.1959 62.961 52.0251 61.7172" stroke="#AEB8FE" stroke-width="2" stroke-linecap="round" stroke-linejoin="round"/>
<path d="M47.5664 46.3638C47.4877 46.0729 47.7705 45.8877 47.8636 45.6704" stroke="#AEB8FE" stroke-width="2" stroke-linecap="round" stroke-linejoin="round"/>
<path d="M15.0732 18.1147C21.2959 -0.239674 48.3536 8.28982 42.9916 27.3414C40.0846 37.6695 20.3154 42.5307 16.0198 26.1091" stroke="#AEB8FE" stroke-width="2" stroke-linecap="round" stroke-linejoin="round"/>
<path d="M36.5349 24.2384C36.4082 23.2599 36.3612 22.6639 36.1504 21.7866" stroke="#AEB8FE" stroke-width="2" stroke-linecap="round" stroke-linejoin="round"/>
<path d="M30.8854 24.4226C30.8384 23.5985 30.6321 22.9937 30.4131 22.1978" stroke="#AEB8FE" stroke-width="2" stroke-linecap="round" stroke-linejoin="round"/>
<path d="M54.9966 51.1185C53.871 51.3562 52.8268 51.7845 51.9258 52.5052C43.8331 58.9792 56.0834 61.2276 59.8503 53.6939C60.5857 52.2226 60.3966 50.6127 59.4539 49.4346" stroke="#AEB8FE" stroke-width="2" stroke-linecap="round" stroke-linejoin="round"/>
<path d="M16.0078 45.5169C18.1952 36.2574 31.8596 43.0283 30.0736 50.1725C29.0129 54.4149 25.187 49.2816 24.6255 47.597" stroke="#AEB8FE" stroke-width="2" stroke-linecap="round" stroke-linejoin="round"/>
<path d="M24.7237 49.2231C24.4087 53.5584 19.7422 51.6395 18.0869 49.3221" stroke="#AEB8FE" stroke-width="2" stroke-linecap="round" stroke-linejoin="round"/>
</svg>
