<svg width="72" height="73" viewBox="0 0 72 73" fill="none" xmlns="http://www.w3.org/2000/svg">
<path d="M26.5317 57.1586C7.17229 57.1586 7.61331 57.1586 15.68 38.5327V50.4026" stroke="#AEB8FE" stroke-width="2" stroke-linecap="round" stroke-linejoin="round"/>
<path d="M58.4204 41.8482C54.7974 41.7125 35.1759 41.5456 33.7561 42.9658C31.7079 45.0146 26.6409 59.1583 28.6695 61.8637C42.4555 62.1263 52.8806 62.4069 54.9196 61.5912C55.9719 61.1701 56.8125 59.9596 57.2812 58.8656C57.6524 57.9991 61.5501 44.7918 61.5501 44.4195" stroke="#AEB8FE" stroke-width="2" stroke-linecap="round" stroke-linejoin="round"/>
<path d="M28.0042 61.7417C25.0896 60.6403 22.0336 59.672 19.2275 58.231" stroke="#AEB8FE" stroke-width="2" stroke-linecap="round" stroke-linejoin="round"/>
<path d="M19.6717 23.2961C15.1195 38.2512 35.486 44.5853 40.8795 29.5484C43.8032 21.3969 33.9662 9.39845 23.883 18.4042" stroke="#AEB8FE" stroke-width="2" stroke-linecap="round" stroke-linejoin="round"/>
<path d="M33.7861 29.2206C33.9726 28.7166 34.1056 28.421 34.2099 27.9321" stroke="#AEB8FE" stroke-width="2" stroke-linecap="round" stroke-linejoin="round"/>
<path d="M29.5781 29.1333C29.7738 28.7315 29.8062 28.3713 29.8827 27.917" stroke="#AEB8FE" stroke-width="2" stroke-linecap="round" stroke-linejoin="round"/>
</svg>
