<svg width="72" height="73" viewBox="0 0 72 73" fill="none" xmlns="http://www.w3.org/2000/svg">
<path d="M62.82 58.0811C17.3041 58.4245 13.9173 58.3136 9 58.3136" stroke="#AEB8FE" stroke-width="2" stroke-linecap="round" stroke-linejoin="round"/>
<path d="M32.1865 51.1988C53.4731 50.3488 55.0004 50.7574 56.3972 50.4082" stroke="#AEB8FE" stroke-width="2" stroke-linecap="round" stroke-linejoin="round"/>
<path d="M56.3964 51.1987C56.5716 53.4628 56.2622 56.155 55.9023 58.3138" stroke="#AEB8FE" stroke-width="2" stroke-linecap="round" stroke-linejoin="round"/>
<path d="M31.3657 51.1987C31.4024 52.9728 31.1727 55.0504 31.995 58.0814" stroke="#AEB8FE" stroke-width="2" stroke-linecap="round" stroke-linejoin="round"/>
<path d="M49.9395 46.0187C54.0379 38.1993 58.5357 43.803 50.2053 45.8856" stroke="#AEB8FE" stroke-width="2" stroke-linecap="round" stroke-linejoin="round"/>
<path d="M49.9397 45.3544C51.6582 38.515 45.2443 37.5881 47.7477 43.096C48.1981 44.0863 49.1362 44.6929 49.6741 45.5537" stroke="#AEB8FE" stroke-width="2" stroke-linecap="round" stroke-linejoin="round"/>
<path d="M50.0723 45.4868C50.3837 47.1183 50.4769 48.7716 50.2051 50.4021" stroke="#AEB8FE" stroke-width="2" stroke-linecap="round" stroke-linejoin="round"/>
<path d="M33.8545 22.109C34.8159 25.7691 30.7794 30.6891 24.2335 29.4606C14.8571 27.7011 19.2389 7.27889 33.1696 17.9514" stroke="#AEB8FE" stroke-width="2" stroke-linecap="round" stroke-linejoin="round"/>
<path d="M20.8084 32.5273C14.9395 40.4178 12.4086 44.7695 12.8695 45.5478C15.7003 50.3295 25.5595 47.4378 26.6395 49.5978" stroke="#AEB8FE" stroke-width="2" stroke-linecap="round" stroke-linejoin="round"/>
<path d="M20.8613 32.5156C26.6705 42.8395 26.4267 43.6357 26.7893 43.6357C29.3242 40.0076 34.6792 36.2053 36.3059 35.6147" stroke="#AEB8FE" stroke-width="2" stroke-linecap="round" stroke-linejoin="round"/>
<path d="M30.9131 38.9701C32.3864 38.3658 42.5906 36.9692 41.5736 39.6809C40.3987 42.8138 35.3171 44.5004 33.7011 45.3666" stroke="#AEB8FE" stroke-width="2" stroke-linecap="round" stroke-linejoin="round"/>
<path d="M30.9131 39.4688C31.479 41.142 32.2341 44.094 33.4045 45.4984" stroke="#AEB8FE" stroke-width="2" stroke-linecap="round" stroke-linejoin="round"/>
<path d="M20.8794 33.2026C20.5527 47.4192 19.0142 53.9257 17.667 58.2842" stroke="#AEB8FE" stroke-width="2" stroke-linecap="round" stroke-linejoin="round"/>
<path d="M33.8008 37.8831C36.2639 33.7474 38.9049 35.8515 41.1955 38.3711" stroke="#AEB8FE" stroke-width="2" stroke-linecap="round" stroke-linejoin="round"/>
<path d="M39.5068 42.3872C40.5843 42.7668 41.5093 43.5599 42.5472 44.0389" stroke="#AEB8FE" stroke-width="2" stroke-linecap="round" stroke-linejoin="round"/>
<path d="M44.1987 43.4011C42.4572 42.8956 42.0901 44.3961 42.7347 45.5782" stroke="#AEB8FE" stroke-width="2" stroke-linecap="round" stroke-linejoin="round"/>
<path d="M44.3737 43.5879C44.1196 44.3983 43.5439 44.9356 42.9814 45.4981" stroke="#AEB8FE" stroke-width="2" stroke-linecap="round" stroke-linejoin="round"/>
</svg>
