<svg width="72" height="73" viewBox="0 0 72 73" fill="none" xmlns="http://www.w3.org/2000/svg">
<path d="M34.2975 15.8441C38.5262 9.76466 46.2391 19.5536 40.8193 23.5604C36.6078 26.6742 31.6632 21.8207 33.6405 17.5978" stroke="#AEB8FE" stroke-width="2" stroke-linecap="round" stroke-linejoin="round"/>
<path d="M40.5938 28.1735C39.7854 28.1735 36.9112 28.0621 35.6164 27.858C34.7796 27.726 34.1572 27.5352 33.8953 27.505C33.6984 27.4825 33.5009 27.4679 33.3036 27.4458C33.1987 27.4343 33.0939 27.4218 32.9895 27.4064C32.9686 27.4035 32.9478 27.4019 32.9267 27.4019C32.8027 27.4019 32.6765 27.4548 32.5869 27.5669C32.4589 27.7273 32.4276 27.9561 32.4321 28.1735C32.4366 28.3794 32.4817 28.5899 32.5224 28.7884C32.5588 28.9639 33.2273 31.8614 33.4257 32.3853C33.5837 32.8026 35.1859 40.035 35.237 40.3786C35.2399 40.4261 35.2411 40.4729 35.2411 40.5199" stroke="#AEB8FE" stroke-width="2" stroke-linecap="round" stroke-linejoin="round"/>
<path d="M35.2799 40.71C35.1962 40.9947 33.9587 47.2215 33.7254 48.4212C33.603 49.053 33.481 49.6848 33.36 50.3167C33.3112 50.5723 33.2675 50.8299 33.2111 51.0841C33.1242 51.475 33.0373 51.8664 32.9503 52.2573C32.8888 52.5356 32.8031 52.8074 32.726 53.0808C32.6501 53.3514 32.5721 53.619 32.4865 53.886C32.2969 54.476 32.0975 55.0642 31.9211 55.6588C31.8246 55.9848 31.7231 56.3098 31.6345 56.6383C31.5382 56.996 31.4441 57.3535 31.3543 57.7128C31.2193 58.2515 31.0945 58.7944 30.9494 59.3304C30.9064 59.3391 30.8632 59.3473 30.82 59.3571C30.7266 59.3781 30.6337 59.3992 30.5405 59.4202C30.3956 59.4532 29.4734 59.4265 29.3955 59.5313" stroke="#AEB8FE" stroke-width="2" stroke-linecap="round" stroke-linejoin="round"/>
<path d="M41.164 28.7329C41.1341 28.8143 41.1192 28.9014 41.1188 28.9955C41.0562 29.7838 40.9899 30.5709 40.9246 31.3588C40.8184 32.5468 40.7133 33.7348 40.5961 34.9206C40.5392 35.4988 40.4838 36.0764 40.4159 36.6513C40.3693 37.0495 40.3223 37.4473 40.2753 37.8451C40.2463 38.0924 40.2017 38.3356 40.163 38.5793C40.1221 38.8383 40.087 39.1016 40.0365 39.3571C39.976 39.6611 39.9198 39.9682 39.8534 40.2689C39.7927 40.5431 39.7315 40.8169 39.6698 41.0905C39.6619 41.0834 39.6538 41.0768 39.6455 41.0698" stroke="#AEB8FE" stroke-width="2" stroke-linecap="round" stroke-linejoin="round"/>
<path d="M40.0254 41.2803C40.0596 41.7621 40.5515 44.6724 40.6765 45.3002C40.9591 46.7208 41.2402 48.1413 41.519 49.563C41.7496 50.7375 41.9804 51.9134 42.2414 53.0794C42.3983 53.7802 42.556 54.48 42.7207 55.179C42.8635 55.7848 43.006 56.3916 43.1313 57.0033C43.1412 57.0513 43.856 59.5359 43.8959 59.5936C44.2082 60.0152 44.9606 59.9074 45.0193 59.8761C45.0629 59.8546 45.107 59.8327 45.1505 59.8113" stroke="#AEB8FE" stroke-width="2" stroke-linecap="round" stroke-linejoin="round"/>
<path d="M32.7706 27.6092C32.7369 27.5977 32.7027 27.5923 32.6685 27.5923C32.5668 27.5923 32.4667 27.6416 32.3933 27.7311C32.2691 27.8833 32.1442 28.0344 32.0259 28.194C31.9041 28.3591 27.5567 32.0224 27.5 32.0838C27.3738 32.2203 27.2728 32.3837 27.1769 32.5518C27.0777 32.7257 27.0108 32.9336 26.9631 33.1359C26.9159 33.3368 26.9218 33.5508 26.9467 33.7546C26.9985 34.1787 34.5281 39.0379 34.7554 39.1866C34.8667 39.2593 34.9779 39.3324 35.0899 39.4041C35.0832 39.4199 35.0766 39.4359 35.0703 39.4519C34.9518 39.7495 34.8802 40.0841 34.8618 40.4148C34.8447 40.7208 34.8897 41.0185 35.0249 41.2806" stroke="#AEB8FE" stroke-width="2" stroke-linecap="round" stroke-linejoin="round"/>
<path d="M40.7145 28.1626C40.8259 28.4038 45.1179 32.5116 45.3758 33.0492C45.4347 33.1715 45.4899 33.2955 45.543 33.4213C45.5778 33.5041 45.6087 33.5932 45.6375 33.6787C45.6478 33.7084 45.6588 33.7377 45.6678 33.7678C45.6933 33.8511 45.7257 33.968 45.7185 34.0553C45.7133 34.1264 45.7057 34.1971 45.6964 34.2675C45.6737 34.3355 45.6492 34.4021 45.6229 34.4684C45.5774 34.5483 45.5322 34.6323 45.4737 34.7004C45.3526 34.8406 45.2086 34.9605 45.0651 35.0661C44.8968 35.1896 44.7258 35.3084 44.5582 35.4332C44.3361 35.5995 41.4199 38.2338 41.2486 38.351C41.0788 38.4672 40.8972 38.5536 40.7145 38.6366C40.7595 38.7095 40.7986 38.7871 40.8303 38.869C40.8706 38.9729 40.9062 39.0755 40.9323 39.1851C40.9462 39.2781 40.9548 39.3717 40.9582 39.4657C40.9489 39.5933 40.9341 39.7164 40.9059 39.8401C40.8258 40.1911 40.509 40.4033 40.2148 40.3065" stroke="#AEB8FE" stroke-width="2" stroke-linecap="round" stroke-linejoin="round"/>
<path d="M32.7603 27.5521C22.7964 26.675 31.0451 40.3004 26.2803 47.1678L30.092 46.9646" stroke="#AEB8FE" stroke-width="2" stroke-linecap="round" stroke-linejoin="round"/>
</svg>
