<svg width="72" height="73" viewBox="0 0 72 73" fill="none" xmlns="http://www.w3.org/2000/svg">
<path d="M45.363 41.9071C41.6938 51.0235 30.041 52.4859 29.3428 41.4463" stroke="#AEB8FE" stroke-width="2" stroke-linecap="round" stroke-linejoin="round"/>
<path d="M29.3428 41.8794C34.5766 42.3379 39.5227 42.9968 44.7135 42.0331" stroke="#AEB8FE" stroke-width="2" stroke-linecap="round" stroke-linejoin="round"/>
<path d="M29.3427 41.1766C16.7402 43.7056 13.6363 27.6651 26.8452 25.6426" stroke="#AEB8FE" stroke-width="2" stroke-linecap="round" stroke-linejoin="round"/>
<path d="M26.9609 27.1582C27.7018 31.3254 27.9023 35.7779 29.3423 39.7146" stroke="#AEB8FE" stroke-width="2" stroke-linecap="round" stroke-linejoin="round"/>
<path d="M31.7236 52.8519C36.7356 52.3106 39.2217 52.8519 40.4914 52.8519C40.7397 52.8519 40.4149 58.2171 41.2492 65.2604" stroke="#AEB8FE" stroke-width="2" stroke-linecap="round" stroke-linejoin="round"/>
<path d="M31.5078 54.2192C32.2172 58.3164 32.5011 62.4375 32.8067 66.5591" stroke="#AEB8FE" stroke-width="2" stroke-linecap="round" stroke-linejoin="round"/>
<path d="M40.3838 52.8996C47.8829 53.2839 52.9523 48.1818 57.4863 43.8276" stroke="#AEB8FE" stroke-width="2" stroke-linecap="round" stroke-linejoin="round"/>
<path d="M58.3525 43.9478C58.759 44.2691 59.2187 44.0759 59.6514 44.1404" stroke="#AEB8FE" stroke-width="2" stroke-linecap="round" stroke-linejoin="round"/>
<path d="M31.0747 52.9201C24.6275 52.4789 19.8231 49.8713 16.3535 46.209" stroke="#AEB8FE" stroke-width="2" stroke-linecap="round" stroke-linejoin="round"/>
<path d="M15.7041 47.0058C13.7474 47.9847 13.095 46.164 12.2402 45.7759" stroke="#AEB8FE" stroke-width="2" stroke-linecap="round" stroke-linejoin="round"/>
<path d="M48.8271 11.0763C41.5308 7.0281 48.827 16.5057 42.5488 13.9078" stroke="#AEB8FE" stroke-width="2" stroke-linecap="round" stroke-linejoin="round"/>
<path d="M45.5749 19.6412C45.6379 22.0792 45.0292 23.9108 43.9049 23.9108C43.184 23.9108 40.167 21.7089 40.167 20.8415C40.167 19.7447 42.2982 19.0217 45.2601 18.4985" stroke="#AEB8FE" stroke-width="2" stroke-linecap="round" stroke-linejoin="round"/>
<path d="M28.6381 8.21973C27.5898 10.1733 27.1934 12.7136 27.9388 14.8533C29.5465 19.471 37.1746 18.777 35.1955 13.7122C33.1921 8.58406 28.8922 17.9807 33.861 23.9022" stroke="#AEB8FE" stroke-width="2" stroke-linecap="round" stroke-linejoin="round"/>
<path d="M38.8643 36.712C46.0904 17.6625 45.6897 47.0408 53.7306 25.6426" stroke="#AEB8FE" stroke-width="2" stroke-linecap="round" stroke-linejoin="round"/>
<path d="M33.5293 27.9231C38.7775 26.7747 36.1328 34.6412 32.5898 31.6847" stroke="#AEB8FE" stroke-width="2" stroke-linecap="round" stroke-linejoin="round"/>
</svg>
