<svg width="72" height="73" viewBox="0 0 72 73" fill="none" xmlns="http://www.w3.org/2000/svg">
<path d="M33.4424 15.8712C36.3647 26.4645 51.1227 23.3813 48.2218 12.899C46.4843 6.61981 41.8264 7.10684 37.8725 9.57709" stroke="#AEB8FE" stroke-width="2" stroke-linecap="round" stroke-linejoin="round"/>
<path d="M44.7544 27.5312C44.7544 43.6935 35.6289 47.1442 35.6289 68.1157" stroke="#AEB8FE" stroke-width="2" stroke-linecap="round" stroke-linejoin="round"/>
<path d="M35.0569 29.5225C35.0572 38.1304 29.1669 58.5856 20.0166 38.1304" stroke="#AEB8FE" stroke-width="2" stroke-linecap="round" stroke-linejoin="round"/>
<path d="M44.7539 27.5316C46.4394 22.7287 54.5554 7.6359 53.8342 4.95801" stroke="#AEB8FE" stroke-width="2" stroke-linecap="round" stroke-linejoin="round"/>
<path d="M34.9082 28.9723C34.9082 23.7307 25.2572 9.95987 19.2988 5.91846" stroke="#AEB8FE" stroke-width="2" stroke-linecap="round" stroke-linejoin="round"/>
<path d="M19.9293 38.0358C18.969 37.3617 17.855 37.6938 16.8076 37.563" stroke="#AEB8FE" stroke-width="2" stroke-linecap="round" stroke-linejoin="round"/>
<path d="M37.7898 68.8363C37.0871 68.5961 36.3844 68.356 35.6816 68.1157" stroke="#AEB8FE" stroke-width="2" stroke-linecap="round" stroke-linejoin="round"/>
<path d="M21.9406 8.06515C20.942 7.89931 20.0431 7.68292 19.1973 7.11914" stroke="#AEB8FE" stroke-width="2" stroke-linecap="round" stroke-linejoin="round"/>
<path d="M53.9453 7.61359C54.4423 6.86784 54.8871 6.30708 55.0804 5.43799" stroke="#AEB8FE" stroke-width="2" stroke-linecap="round" stroke-linejoin="round"/>
</svg>
