<svg width="80" height="81" viewBox="0 0 80 81" fill="none" xmlns="http://www.w3.org/2000/svg">
<path d="M20.3364 20.3216C21.9954 18.2636 24.537 17.7063 26.994 18.7883C31.2358 20.6562 33.9962 24.6136 33.9962 29.5218C33.9962 50.605 1.97396 35.0616 18.3848 19.496" stroke="#AEB8FE" stroke-width="2" stroke-linecap="round" stroke-linejoin="round"/>
<path d="M33.082 42.8228C35.3098 48.615 38.5086 56.125 37.6774 63.1896" stroke="#AEB8FE" stroke-width="2" stroke-linecap="round" stroke-linejoin="round"/>
<path d="M33.2883 43.2686C33.5281 47.339 33.2883 59.5314 31.0771 69.111" stroke="#AEB8FE" stroke-width="2" stroke-linecap="round" stroke-linejoin="round"/>
<path d="M43.7718 40.2578C41.7854 48.4868 40.0758 60.2582 37.6768 63.1896" stroke="#AEB8FE" stroke-width="2" stroke-linecap="round" stroke-linejoin="round"/>
<path d="M44.1875 39.0118C47.0847 36.7596 49.1425 39.0896 45.8493 41.5046" stroke="#AEB8FE" stroke-width="2" stroke-linecap="round" stroke-linejoin="round"/>
<path d="M45.7462 41.6082C48.9888 41.346 48.465 44.053 45.4346 43.8934" stroke="#AEB8FE" stroke-width="2" stroke-linecap="round" stroke-linejoin="round"/>
<path d="M41.3818 27.4819C42.3314 30.0349 44.0374 37.2639 44.0824 37.4531" stroke="#AEB8FE" stroke-width="2" stroke-linecap="round" stroke-linejoin="round"/>
<path d="M41.5898 27.0668C46.9864 23.139 52.586 19.4175 58.105 15.6411" stroke="#AEB8FE" stroke-width="2" stroke-linecap="round" stroke-linejoin="round"/>
<path d="M58.7285 15.8486C59.7087 21.5347 60.6233 27.6217 62.3637 33.0909" stroke="#AEB8FE" stroke-width="2" stroke-linecap="round" stroke-linejoin="round"/>
<path d="M42.8369 33.922C49.2259 33.7886 55.6457 33.0908 62.0525 33.0908" stroke="#AEB8FE" stroke-width="2" stroke-linecap="round" stroke-linejoin="round"/>
<path d="M30.3742 36.0097C30.213 35.0367 30.0134 33.8011 29.915 32.9429" stroke="#AEB8FE" stroke-width="2" stroke-linecap="round" stroke-linejoin="round"/>
<path d="M30.3232 27.281C30.3652 26.8454 30.2061 26.1212 30.0938 25.7354" stroke="#AEB8FE" stroke-width="2" stroke-linecap="round" stroke-linejoin="round"/>
<path d="M26.5355 27.6348C26.5551 27.281 26.5187 26.798 26.4795 26.2754" stroke="#AEB8FE" stroke-width="2" stroke-linecap="round" stroke-linejoin="round"/>
<path d="M63.8184 15.8488C64.9488 14.7336 67.5766 13.1339 68.3886 12.5249" stroke="#AEB8FE" stroke-width="2" stroke-linecap="round" stroke-linejoin="round"/>
<path d="M66.9453 22.1183C68.3619 21.5777 69.8867 21.1861 71.3077 20.7681" stroke="#AEB8FE" stroke-width="2" stroke-linecap="round" stroke-linejoin="round"/>
<path d="M67.1416 29.5596C68.5462 30.073 69.9312 30.079 71.4 30.079" stroke="#AEB8FE" stroke-width="2" stroke-linecap="round" stroke-linejoin="round"/>
<path d="M38.7858 29.144C36.1464 32.4944 38.6626 34.0276 41.6942 32.7794" stroke="#AEB8FE" stroke-width="2" stroke-linecap="round" stroke-linejoin="round"/>
<path d="M47.5108 35.2725C47.6412 36.3083 46.8348 37.3761 46.5762 38.1807" stroke="#AEB8FE" stroke-width="2" stroke-linecap="round" stroke-linejoin="round"/>
<path d="M15.7061 44.605C18.1699 53.0414 19.4933 56.151 19.4933 69.1108" stroke="#AEB8FE" stroke-width="2" stroke-linecap="round" stroke-linejoin="round"/>
<path d="M15.4832 44.605C13.4808 49.016 7.42902 66.128 9.08262 68.6652" stroke="#AEB8FE" stroke-width="2" stroke-linecap="round" stroke-linejoin="round"/>
</svg>
